<?xml version="1.0" encoding="UTF-8"?>
<svg width="700pt" height="700pt" version="1.1" viewBox="0 0 700 700" xmlns="http://www.w3.org/2000/svg" xmlns:xlink="http://www.w3.org/1999/xlink">
 <defs>
  <symbol id="m" overflow="visible">
   <path d="m31.281-1.875c-1.6172 0.84375-3.2969 1.4766-5.0469 1.8906-1.7422 0.42578-3.5625 0.64062-5.4688 0.64062-5.668 0-10.156-1.582-13.469-4.75-3.3125-3.1641-4.9688-7.4609-4.9688-12.891 0-5.4375 1.6562-9.7383 4.9688-12.906 3.3125-3.1758 7.8008-4.7656 13.469-4.7656 1.9062 0 3.7266 0.21484 5.4688 0.64062 1.75 0.42969 3.4297 1.0586 5.0469 1.8906v7.0469c-1.625-1.1016-3.2305-1.9141-4.8125-2.4375-1.5859-0.51953-3.25-0.78125-5-0.78125-3.125 0-5.5898 1.0078-7.3906 3.0156-1.793 2.0117-2.6875 4.7773-2.6875 8.2969 0 3.5117 0.89453 6.2734 2.6875 8.2812 1.8008 2 4.2656 3 7.3906 3 1.75 0 3.4141-0.25391 5-0.76562 1.582-0.51953 3.1875-1.332 4.8125-2.4375z"/>
  </symbol>
  <symbol id="d" overflow="visible">
   <path d="m22.891-18.578c-0.71875-0.33203-1.4336-0.57812-2.1406-0.73438-0.69922-0.16406-1.4062-0.25-2.125-0.25-2.0938 0-3.7109 0.67188-4.8438 2.0156-1.1367 1.3438-1.7031 3.2734-1.7031 5.7812v11.766h-8.1562v-25.531h8.1562v4.1875c1.0508-1.6641 2.2539-2.8789 3.6094-3.6406 1.3633-0.76953 2.9922-1.1562 4.8906-1.1562 0.28125 0 0.57812 0.011719 0.89062 0.03125 0.32031 0.023437 0.78516 0.070313 1.3906 0.14062z"/>
  </symbol>
  <symbol id="b" overflow="visible">
   <path d="m29.406-12.828v2.3125h-19.078c0.19531 1.918 0.88281 3.3555 2.0625 4.3125 1.1875 0.96094 2.8477 1.4375 4.9844 1.4375 1.7188 0 3.4727-0.25391 5.2656-0.76562 1.8008-0.50781 3.6562-1.2812 5.5625-2.3125v6.2969c-1.9375 0.73047-3.8711 1.2773-5.7969 1.6406-1.9297 0.375-3.8555 0.5625-5.7812 0.5625-4.625 0-8.2188-1.1719-10.781-3.5156-2.5625-2.3516-3.8438-5.6484-3.8438-9.8906 0-4.1562 1.2539-7.4258 3.7656-9.8125 2.5195-2.3828 5.9844-3.5781 10.391-3.5781 4.0195 0 7.2344 1.2109 9.6406 3.625 2.4062 2.418 3.6094 5.6484 3.6094 9.6875zm-8.3906-2.7188c0-1.5508-0.45312-2.8008-1.3594-3.75-0.89844-0.94531-2.0742-1.4219-3.5312-1.4219-1.5859 0-2.8711 0.44531-3.8594 1.3281-0.99219 0.88672-1.6055 2.168-1.8438 3.8438z"/>
  </symbol>
  <symbol id="h" overflow="visible">
   <path d="m15.359-11.484c-1.6992 0-2.9805 0.29297-3.8438 0.875-0.85547 0.57422-1.2812 1.4219-1.2812 2.5469 0 1.0312 0.34375 1.8398 1.0312 2.4219 0.69531 0.58594 1.6602 0.875 2.8906 0.875 1.5312 0 2.8203-0.54688 3.875-1.6406 1.0508-1.1016 1.5781-2.4883 1.5781-4.1562v-0.92188zm12.469-3.0781v14.562h-8.2188v-3.7812c-1.0938 1.5547-2.3281 2.6836-3.7031 3.3906-1.3672 0.69531-3.0273 1.0469-4.9844 1.0469-2.6484 0-4.7969-0.76953-6.4531-2.3125-1.6484-1.5391-2.4688-3.5391-2.4688-6 0-3 1.0312-5.1953 3.0938-6.5938 2.0625-1.3945 5.2969-2.0938 9.7031-2.0938h4.8125v-0.64062c0-1.2891-0.51172-2.2344-1.5312-2.8281-1.0234-0.60156-2.6094-0.90625-4.7656-0.90625-1.75 0-3.3828 0.17969-4.8906 0.53125-1.5 0.34375-2.8984 0.86719-4.1875 1.5625v-6.2188c1.75-0.42578 3.5039-0.75 5.2656-0.96875 1.7695-0.21875 3.5352-0.32812 5.2969-0.32812 4.6016 0 7.9258 0.90625 9.9688 2.7188 2.0391 1.8125 3.0625 4.7656 3.0625 8.8594z"/>
  </symbol>
  <symbol id="a" overflow="visible">
   <path d="m12.828-32.781v7.25h8.4219v5.8281h-8.4219v10.828c0 1.1875 0.23438 1.9922 0.70312 2.4062 0.47656 0.41797 1.4141 0.625 2.8125 0.625h4.2031v5.8438h-7c-3.2305 0-5.5156-0.67188-6.8594-2.0156s-2.0156-3.6289-2.0156-6.8594v-10.828h-4.0625v-5.8281h4.0625v-7.25z"/>
  </symbol>
  <symbol id="g" overflow="visible">
   <path d="m21.297-21.797v-13.672h8.2031v35.469h-8.2031v-3.6875c-1.125 1.5-2.3672 2.6016-3.7188 3.2969-1.3555 0.69531-2.9219 1.0469-4.7031 1.0469-3.1484 0-5.7305-1.25-7.75-3.75-2.0234-2.5-3.0312-5.7188-3.0312-9.6562 0-3.9258 1.0078-7.1406 3.0312-9.6406 2.0195-2.5 4.6016-3.75 7.75-3.75 1.7695 0 3.332 0.35547 4.6875 1.0625 1.3633 0.69922 2.6094 1.793 3.7344 3.2812zm-5.3906 16.531c1.75 0 3.082-0.63281 4-1.9062 0.92578-1.2812 1.3906-3.1406 1.3906-5.5781 0-2.4258-0.46484-4.2734-1.3906-5.5469-0.91797-1.2812-2.25-1.9219-4-1.9219-1.7305 0-3.0547 0.64062-3.9688 1.9219-0.91797 1.2734-1.375 3.1211-1.375 5.5469 0 2.4375 0.45703 4.2969 1.375 5.5781 0.91406 1.2734 2.2383 1.9062 3.9688 1.9062z"/>
  </symbol>
  <symbol id="f" overflow="visible">
   <path d="m17.516-5.2656c1.7383 0 3.0664-0.63281 3.9844-1.9062 0.92578-1.2812 1.3906-3.1406 1.3906-5.5781 0-2.4258-0.46484-4.2734-1.3906-5.5469-0.91797-1.2812-2.2461-1.9219-3.9844-1.9219-1.75 0-3.0938 0.64062-4.0312 1.9219s-1.4062 3.1328-1.4062 5.5469c0 2.418 0.46875 4.2734 1.4062 5.5625 0.9375 1.2812 2.2812 1.9219 4.0312 1.9219zm-5.4375-16.531c1.125-1.4883 2.3672-2.582 3.7344-3.2812 1.375-0.70703 2.9531-1.0625 4.7344-1.0625 3.1445 0 5.7266 1.25 7.75 3.75 2.0195 2.5 3.0312 5.7148 3.0312 9.6406 0 3.9375-1.0117 7.1562-3.0312 9.6562-2.0234 2.5-4.6055 3.75-7.75 3.75-1.7812 0-3.3594-0.35156-4.7344-1.0469-1.3672-0.70703-2.6094-1.8047-3.7344-3.2969v3.6875h-8.1562v-35.469h8.1562z"/>
  </symbol>
  <symbol id="c" overflow="visible">
   <path d="m0.5625-25.531h8.1719l6.8594 17.328 5.8281-17.328h8.1719l-10.734 27.953c-1.0859 2.832-2.3438 4.8164-3.7812 5.9531-1.4375 1.1328-3.3359 1.7031-5.6875 1.7031h-4.7188v-5.3594h2.5469c1.3828 0 2.3906-0.22656 3.0156-0.67188 0.63281-0.4375 1.1289-1.2266 1.4844-2.3594l0.23438-0.70312z"/>
  </symbol>
  <symbol id="e" overflow="visible">
   <path d="m4.2812-34.031h14.578c4.3203 0 7.6406 0.96484 9.9531 2.8906 2.3203 1.918 3.4844 4.6523 3.4844 8.2031 0 3.5742-1.1641 6.3242-3.4844 8.25-2.3125 1.918-5.6328 2.875-9.9531 2.875h-5.7969v11.812h-8.7812zm8.7812 6.3594v9.5h4.8594c1.6953 0 3.0078-0.41016 3.9375-1.2344 0.92578-0.83203 1.3906-2.0078 1.3906-3.5312 0-1.5195-0.46484-2.6875-1.3906-3.5-0.92969-0.82031-2.2422-1.2344-3.9375-1.2344z"/>
  </symbol>
  <symbol id="l" overflow="visible">
   <path d="m24.547-24.734v6.6562c-1.1055-0.75781-2.2188-1.3203-3.3438-1.6875-1.1172-0.36328-2.2734-0.54688-3.4688-0.54688-2.2812 0-4.0586 0.66797-5.3281 2-1.2617 1.3242-1.8906 3.1797-1.8906 5.5625 0 2.3867 0.62891 4.2461 1.8906 5.5781 1.2695 1.3359 3.0469 2 5.3281 2 1.2812 0 2.4922-0.1875 3.6406-0.5625 1.1445-0.38281 2.2031-0.95312 3.1719-1.7031v6.6875c-1.2734 0.46875-2.5703 0.81641-3.8906 1.0469-1.3125 0.23828-2.6328 0.35938-3.9531 0.35938-4.6055 0-8.2109-1.1758-10.812-3.5312-2.5938-2.3633-3.8906-5.6562-3.8906-9.875 0-4.207 1.2969-7.4883 3.8906-9.8438 2.6016-2.3633 6.207-3.5469 10.812-3.5469 1.3438 0 2.6602 0.12109 3.9531 0.35938 1.3008 0.23047 2.5977 0.57812 3.8906 1.0469z"/>
  </symbol>
  <symbol id="k" overflow="visible">
   <path d="m16.078-20.312c-1.8125 0-3.1953 0.65234-4.1406 1.9531-0.94922 1.3047-1.4219 3.1719-1.4219 5.6094 0 2.4492 0.47266 4.3242 1.4219 5.625 0.94531 1.3047 2.3281 1.9531 4.1406 1.9531 1.7695 0 3.125-0.64844 4.0625-1.9531 0.94531-1.3008 1.4219-3.1758 1.4219-5.625 0-2.4375-0.47656-4.3047-1.4219-5.6094-0.9375-1.3008-2.293-1.9531-4.0625-1.9531zm0-5.8281c4.3828 0 7.8125 1.1875 10.281 3.5625 2.4688 2.3672 3.7031 5.6406 3.7031 9.8281 0 4.1992-1.2344 7.4844-3.7031 9.8594-2.4688 2.3672-5.8984 3.5469-10.281 3.5469-4.418 0-7.8711-1.1797-10.359-3.5469-2.4805-2.375-3.7188-5.6602-3.7188-9.8594 0-4.1875 1.2383-7.4609 3.7188-9.8281 2.4883-2.375 5.9414-3.5625 10.359-3.5625z"/>
  </symbol>
  <symbol id="j" overflow="visible">
   <path d="m29.594-15.547v15.547h-8.2031v-11.906c0-2.1953-0.054687-3.7109-0.15625-4.5469-0.09375-0.84375-0.26562-1.4609-0.51562-1.8594-0.3125-0.53125-0.74609-0.94141-1.2969-1.2344-0.54297-0.30078-1.168-0.45312-1.875-0.45312-1.6992 0-3.0391 0.66406-4.0156 1.9844-0.96875 1.3125-1.4531 3.1328-1.4531 5.4531v12.562h-8.1562v-25.531h8.1562v3.7344c1.2266-1.4883 2.5352-2.582 3.9219-3.2812 1.3828-0.70703 2.9102-1.0625 4.5781-1.0625 2.957 0 5.1953 0.90625 6.7188 2.7188 1.5312 1.8047 2.2969 4.4297 2.2969 7.875z"/>
  </symbol>
  <symbol id="i" overflow="visible">
   <path d="m23.875-24.734v6.2031c-1.75-0.72656-3.4375-1.2734-5.0625-1.6406-1.625-0.36328-3.1641-0.54688-4.6094-0.54688-1.5547 0-2.7031 0.19531-3.4531 0.57812-0.75 0.38672-1.125 0.98438-1.125 1.7969 0 0.64844 0.28125 1.1484 0.84375 1.5 0.57031 0.34375 1.5977 0.60156 3.0781 0.76562l1.4375 0.21875c4.1758 0.53125 6.9844 1.4062 8.4219 2.625 1.4453 1.2109 2.1719 3.1172 2.1719 5.7188 0 2.7188-1.0078 4.7617-3.0156 6.125-2 1.3672-4.9922 2.0469-8.9688 2.0469-1.6875 0-3.4336-0.13672-5.2344-0.40625-1.8047-0.25781-3.6562-0.65625-5.5625-1.1875v-6.2031c1.6328 0.79297 3.3047 1.3867 5.0156 1.7812 1.707 0.39844 3.4414 0.59375 5.2031 0.59375 1.5938 0 2.7891-0.21875 3.5938-0.65625 0.8125-0.44531 1.2188-1.1016 1.2188-1.9688 0-0.72656-0.28125-1.2695-0.84375-1.625-0.55469-0.35156-1.6562-0.62891-3.3125-0.82812l-1.4375-0.1875c-3.625-0.45703-6.168-1.3008-7.625-2.5312-1.4609-1.2266-2.1875-3.0977-2.1875-5.6094 0-2.707 0.92578-4.7109 2.7812-6.0156 1.8516-1.3008 4.6914-1.9531 8.5156-1.9531 1.5078 0 3.0938 0.11719 4.75 0.34375 1.6562 0.21875 3.457 0.57422 5.4062 1.0625z"/>
  </symbol>
 </defs>
 <g>
  <path d="m620.94 2.8945c-3.6484-3.6484-9.5508-3.6484-13.199 0l-34.609 34.609h-210.86c-2.5039 0-4.8828 1-6.6367 2.7734l-276.05 279.53c-3.6055 3.6484-3.5859 9.5312 0.039063 13.164l224.46 224.46c1.7539 1.7539 4.125 2.7344 6.5977 2.7344h0.11328c2.5195-0.027344 4.9102-1.0742 6.6484-2.9023l266.33-279.92c1.6523-1.7383 2.5664-4.043 2.5664-6.4336v-220.2l34.609-34.609c3.6484-3.6484 3.6484-9.5508-0.003906-13.199zm-203.95 397.64c-11.633 11.652-25.496 21.191-41.039 27.801-10.512 4.4727-21.602 7.582-32.93 9.1484-52.32 7.2734-103.82-18.812-130.61-63.953-13.098-22.07-19.383-47.773-17.812-73.391 0.94141-15.273 4.5078-30.387 10.652-44.41 20.559-46.961 68.406-78.355 119.68-78.355 26.402 0 50.965 7.9258 71.543 21.445 0.085938 0.054688 0.19531 0.046875 0.28125 0.10156 0.1875 0.12109 0.34375 0.26172 0.52344 0.38281 2.4727 1.6523 4.8281 3.4648 7.1797 5.2734 1.0352 0.79297 2.1289 1.5234 3.1367 2.3438 19.949 16.328 34.953 38.438 42.523 63.727 0.046875 0.16016 0.074219 0.31641 0.12109 0.47656 1.168 3.9688 2.1758 8 3.0156 12.445 1.5234 7.9453 2.3789 16.125 2.3789 24.508 0 35.059-14.527 68.305-38.645 92.457zm113.33-260.33c0 25.738-20.941 46.68-46.68 46.68s-46.68-20.941-46.68-46.68 20.941-46.68 46.68-46.68c9.5039 0 18.316 2.8867 25.703 7.7773l-13.695 13.707c-3.6484-1.7461-7.6914-2.8086-12.008-2.8086-15.441 0-28.008 12.566-28.008 28.008s12.566 28.008 28.008 28.008c15.441 0 28.008-12.566 28.008-28.008 0-4.3125-1.0547-8.3477-2.8008-11.996l13.695-13.707c4.8906 7.3828 7.7773 16.203 7.7773 25.699z"/>
  <path d="m424.49 315.07c-1.7539 1.5586-3.9766 2.3516-6.207 2.3516-1.8008 0-3.6055-0.51172-5.1797-1.5703l-28.008-18.672c-1.3555-0.90625-2.4453-2.1367-3.1758-3.5938l-9.3359-18.672c-0.64453-1.2969-0.98047-2.7266-0.98047-4.1719v-37.344c0-1.1875 0.22266-2.3633 0.66406-3.4727l7.7227-19.297c-16.281-9.2344-35.047-14.582-55.062-14.582-15.375 0-30.043 3.1289-43.395 8.7578l31.32 31.32c1.7539 1.7539 2.7344 4.125 2.7344 6.6016v28.008c0 2.4727-0.98047 4.8555-2.7344 6.6016l-35.785 35.785-8.6367 25.918c-1.2695 3.8086-4.8359 6.3867-8.8594 6.3867h-40.145c8.3359 23.461 24.199 43.328 44.766 56.66l5.3789-13.453c0.46875-1.168 1.168-2.2422 2.0625-3.1289l28.008-28.008c1.7539-1.7539 4.125-2.7344 6.6016-2.7344h26.859l36.223-9.0547c2.1641-0.55078 4.4453-0.28906 6.4414 0.71094l18.672 9.3359c1.457 0.72656 2.6875 1.8203 3.5938 3.1758l13.453 20.176c15.898-19.344 25.461-44.086 25.461-71.02 0-1.3242-0.14844-2.6133-0.19531-3.9219z"/>
  <path d="m370.52 364.66-33.992 8.4961c-0.74609 0.1875-1.5039 0.27734-2.2695 0.27734h-24.145l-23.918 23.918-5.4531 13.641c37.887 16.395 84.379 9.4844 115.98-17.027 0.48438-0.40234 0.92578-0.85938 1.4023-1.2695l-14.238-21.359z"/>
  <path d="m417.47 296.32c3.3125-2.9492 6.6289-5.8906 9.9414-8.8398 1.4648-1.3086 4.5547-3.1094 5.4609-4.8555 1.2227-2.3438 0-4.2109-0.90625-7.1992-6.4062-20.961-19.168-40.051-36.176-54.02l-5.5156 13.789v33.348l7.2461 14.48c-0.003907-0.007813 19.949 13.297 19.949 13.297z"/>
  <path d="m260.05 305.14c0.45703-1.3711 1.2305-2.625 2.2578-3.6484l34.609-34.609v-20.277l-32.594-32.594c-0.20703 0.14063-0.42969 0.25391-0.64453 0.39063-33.871 22.191-53.82 63.277-50.285 103.61 0.22266 2.3438 0.55859 4.7148 0.93359 7.0859 0.085937 0.55859 0.16797 1.1094 0.25391 1.6719h38.27z"/>
  <use x="76.605469" y="700.039062" xlink:href="#m"/>
  <use x="110.863281" y="700.039062" xlink:href="#d"/>
  <use x="133.882812" y="700.039062" xlink:href="#b"/>
  <use x="165.542969" y="700.039062" xlink:href="#h"/>
  <use x="197.042969" y="700.039062" xlink:href="#a"/>
  <use x="219.355469" y="700.039062" xlink:href="#b"/>
  <use x="251.015625" y="700.039062" xlink:href="#g"/>
  <use x="300.683594" y="700.039062" xlink:href="#f"/>
  <use x="334.097656" y="700.039062" xlink:href="#c"/>
  <use x="380.777344" y="700.039062" xlink:href="#e"/>
  <use x="414.988281" y="700.039062" xlink:href="#d"/>
  <use x="438.007812" y="700.039062" xlink:href="#b"/>
  <use x="469.667969" y="700.039062" xlink:href="#a"/>
  <use x="491.984375" y="700.039062" xlink:href="#a"/>
  <use x="514.296875" y="700.039062" xlink:href="#c"/>
  <use x="544.726562" y="700.039062" xlink:href="#l"/>
  <use x="572.398438" y="700.039062" xlink:href="#k"/>
  <use x="604.464844" y="700.039062" xlink:href="#j"/>
  <use x="637.699219" y="700.039062" xlink:href="#i"/>
 </g>
</svg>
